PathFileType	4	(X/Y/Z)	c:/Users/goper/Files/vsCode/490R/osim_files/A04/A04_Static02.trc
DataRate	CameraRate	NumFrames	NumMarkers	Units                	OrigDataRate	OrigDataStartFrame	OrigNumFrames
120.00	120.00	5	36	mm	120.0	428	855
                Frame#	Time	LPSIS			LASIS			LTH1			LTH2			LTH3			LTH4			LLFE			LMFE			LSH1			LSH2			LSH3			LSH4			LLMAL			LMMAL			LCAL			LMTP5			LTOE			LMTP1			RPSIS			RASIS			RTH1			RTH2			RTH3			RTH4			RLFE			RMFE			RSH1			RSH2			RSH3			RSH4			RLMAL			RMMAL			RCAL			RMTP1			RTOE			RMTP5		
		X1	Y1	Z1	X2	Y2	Z2	X3	Y3	Z3	X4	Y4	Z4	X5	Y5	Z5	X6	Y6	Z6	X7	Y7	Z7	X8	Y8	Z8	X9	Y9	Z9	X10	Y10	Z10	X11	Y11	Z11	X12	Y12	Z12	X13	Y13	Z13	X14	Y14	Z14	X15	Y15	Z15	X16	Y16	Z16	X17	Y17	Z17	X18	Y18	Z18	X19	Y19	Z19	X20	Y20	Z20	X21	Y21	Z21	X22	Y22	Z22	X23	Y23	Z23	X24	Y24	Z24	X25	Y25	Z25	X26	Y26	Z26	X27	Y27	Z27	X28	Y28	Z28	X29	Y29	Z29	X30	Y30	Z30	X31	Y31	Z31	X32	Y32	Z32	X33	Y33	Z33	X34	Y34	Z34	X35	Y35	Z35	X36	Y36	Z36

428	3.55833	-288.10004	1059.83508	432.91721	-75.78381	1015.70581	324.41702	-186.31866	711.90204	297.47595	-185.51028	667.71222	293.69388	-125.20747	710.09485	294.60623	-131.26103	665.82214	291.05096	-168.00584	539.71899	288.92200	-138.04062	524.46021	424.96579	-215.05441	443.36481	282.60706	-213.37929	399.93442	279.65195	-151.98219	436.82343	285.67511	-160.72449	394.66119	284.95975	-274.02161	115.46474	295.50464	-243.04739	114.32896	375.41571	-333.73798	74.12248	354.81778	-141.72270	60.76646	242.59877	-85.80947	72.80266	297.56689	-99.09035	56.45468	344.05121	-279.17667	1052.55359	538.32043	-44.96378	1033.31433	611.16205	-164.68666	729.17413	645.52814	-158.50455	687.49847	642.53345	-102.60413	731.71942	652.48004	-105.15829	685.18976	646.37543	-113.00976	548.55902	620.02637	-102.92892	545.56335	501.79837	-200.31044	343.72623	607.99542	-202.02606	296.66345	599.42432	-139.57314	335.28336	613.71313	-150.00540	289.03012	608.64215	-201.79887	101.99425	600.65961	-171.18959	112.43609	468.32401	-269.99887	60.53194	518.99835	-44.49904	55.39822	490.65540	-22.60041	75.07861	538.56781	-58.78313	48.12555	609.68127
429	3.56667	-287.62711	1059.78735	432.92618	-75.46387	1015.65515	324.47559	-186.00984	711.90076	297.45383	-185.23016	667.68457	293.68140	-124.88370	710.10583	294.58789	-130.95465	665.81207	291.00339	-167.70221	539.72986	288.87482	-137.71255	524.45831	424.94485	-214.80191	443.39624	282.61050	-213.18982	399.96692	279.60751	-151.72856	436.82275	285.61490	-160.54004	394.64944	284.91986	-273.98352	115.51752	295.49173	-243.42223	114.16337	375.61975	-333.69476	74.23387	354.80264	-141.69858	60.80273	242.58139	-85.77393	72.80711	297.54385	-99.07424	56.44976	344.02805	-278.73087	1052.59412	538.29425	-44.51810	1033.34790	611.17188	-164.39886	729.20319	645.53900	-158.14159	687.55383	642.55725	-102.36230	731.70636	652.29761	-104.83144	685.18890	646.35345	-112.72222	548.55573	620.01013	-102.68147	545.53027	501.80084	-200.16164	343.78180	607.97241	-201.89468	296.72098	599.41785	-139.37613	335.30762	613.70099	-149.62576	289.02689	608.62463	-201.59808	102.07618	600.56738	-171.11488	112.46905	468.31183	-270.02594	60.62254	518.96002	-44.49716	55.38948	490.60980	-22.56645	75.09910	538.54456	-58.76417	48.12864	609.65533
430	3.57500	-287.16705	1059.76794	432.90454	-75.04342	1015.61658	324.50558	-185.60043	711.90759	297.38562	-184.90031	667.65375	293.64862	-124.54669	710.14117	294.57452	-130.61707	665.83295	290.97470	-167.35895	539.75177	288.86285	-137.34885	524.47247	424.88879	-214.52289	443.40530	282.61026	-212.97215	399.97720	279.57498	-151.47900	436.81870	285.56998	-160.32803	394.64615	284.90735	-273.96976	115.59004	295.48804	-243.30969	114.22070	375.64001	-333.64584	74.30028	354.80273	-141.65335	60.82317	242.57219	-85.72615	72.79128	297.51959	-99.02056	56.45059	344.02124	-278.34262	1052.61182	538.27075	-44.01456	1033.41504	611.14862	-164.05634	729.22388	645.54254	-157.79941	687.56970	642.56073	-102.11956	731.65649	652.03680	-104.46165	685.17889	646.31909	-112.41137	548.57294	619.97559	-102.41502	545.51923	501.78729	-199.97755	343.80240	607.97089	-201.76564	296.75064	599.40662	-139.19322	335.32471	613.68439	-149.49606	289.03079	608.61462	-201.71628	102.09879	600.59900	-171.08600	112.49748	468.32181	-269.97318	60.67942	518.90070	-44.45050	55.39286	490.59470	-22.52156	75.10126	538.50262	-58.72275	48.16648	609.63562
431	3.58333	-286.67386	1059.75476	432.97043	-74.53323	1015.59119	324.49530	-185.16118	711.92181	297.29523	-184.46785	667.64935	293.57394	-123.93724	710.34290	294.49365	-130.25343	665.84106	290.95987	-166.96135	539.79651	288.79651	-136.93771	524.49854	424.83112	-214.24672	443.43988	282.56320	-212.73544	400.02271	279.54803	-151.17192	436.82733	285.54523	-160.05568	394.64618	284.89944	-273.89917	115.68777	295.51559	-242.84828	114.47536	375.45923	-333.60062	74.42883	354.81863	-141.61287	60.83041	242.57977	-85.71325	72.77094	297.51678	-98.97915	56.45558	344.03293	-277.94229	1052.60168	538.25952	-43.56953	1033.39807	611.14868	-163.68919	729.23969	645.60059	-157.51187	687.56494	642.57794	-101.89796	731.60828	651.82159	-104.11464	685.15289	646.28528	-112.12102	548.56152	619.97260	-102.17920	545.48901	501.79245	-199.83842	343.83051	607.96515	-201.62163	296.78235	599.38953	-139.05226	335.31143	613.68158	-149.60516	289.08267	608.64282	-201.68454	102.12302	600.63086	-171.06067	112.50683	468.34583	-269.98788	60.72174	518.92841	-44.46167	55.35734	490.61206	-22.51222	75.06351	538.51678	-58.94500	48.08048	609.63910
432	3.59167	-286.18018	1059.69885	432.96841	-74.01406	1015.59442	324.46548	-184.74648	711.93030	297.18616	-184.05504	667.68829	293.49115	-123.53461	710.33862	294.46280	-129.82773	665.86816	290.94138	-166.47935	539.83643	288.72119	-136.51945	524.54523	424.76984	-213.94232	443.46628	282.53250	-212.45384	400.05432	279.51590	-150.89163	436.82730	285.48505	-159.77133	394.64786	284.87503	-273.80963	115.78185	295.52359	-243.13174	114.31809	375.68771	-333.54657	74.51208	354.87482	-141.57968	60.85070	242.59129	-85.65815	72.74088	297.53433	-98.96040	56.40057	344.02386	-277.51028	1052.58020	538.25232	-43.13710	1033.35437	611.15912	-163.19646	729.18219	645.60480	-157.12279	687.54291	642.57886	-101.02716	731.50909	653.01819	-103.77998	685.13257	646.27124	-111.83369	548.49664	619.95734	-101.91017	545.45978	501.78619	-199.63446	343.84213	607.98346	-201.49448	296.82919	599.41302	-138.88560	335.29089	613.67578	-149.23975	289.07748	608.62225	-201.63989	102.13427	600.62354	-170.98561	112.52328	468.32614	-269.89334	60.73125	518.92688	-44.46599	55.29138	490.63382	-22.49441	75.01046	538.52673	-58.92578	48.05624	609.64099
